<?xml version="1.0" encoding="UTF-8"?>
<svg width="50px" height="40px" viewBox="0 0 50 40" version="1.1" xmlns="http://www.w3.org/2000/svg" xmlns:xlink="http://www.w3.org/1999/xlink">
    <!-- Generator: Sketch 53.2 (72643) - https://sketchapp.com -->
    <title>Jenkins_logo</title>
    <desc>Created with Sketch.</desc>
    <g id="Jenkins_logo" stroke="none" stroke-width="1" fill="none" fill-rule="evenodd">
        <g transform="translate(14.000000, 6.000000)" id="g10">
            <g transform="translate(10.500000, 14.500000) scale(-1, 1) rotate(-180.000000) translate(-10.500000, -14.500000) ">
                <g id="g3393">
                    <path d="M20.6192155,14.994624 C20.6192155,9.2608832 16.0740497,4.6127168 10.4672818,4.6127168 C4.86060663,4.6127168 0.315435083,9.2608832 0.315435083,14.994624 C0.315435083,20.728504 4.86060663,25.37674 10.4672818,25.37674 C16.0740497,25.37674 20.6192155,20.728504 20.6192155,14.994624" id="path22" fill="#D33833"></path>
                    <path d="M0.729126961,12.423368 C0.729126961,12.423368 -0.00580110497,23.249996 9.97214586,23.559368 L9.27605967,24.719368 L3.86172597,22.901996 L2.3147337,21.123368 L0.96117116,18.532624 L0.187629779,15.516624 L0.419673978,13.505996" id="path24" fill="#EF3D3A" fill-rule="nonzero"></path>
                    <path d="M3.51411215,22.077004 C1.73294088,20.254876 0.63073442,17.739068 0.63073442,14.95588 L0.63073442,14.95588 C0.63073442,12.173272 1.73294088,9.6571392 3.51411215,7.8353476 L3.51411215,7.8353476 C5.29614199,6.013556 7.75203978,4.8894 10.4671425,4.8894 L10.4671425,4.8894 C13.1823149,4.8894 15.6383867,6.013556 17.4202541,7.8353476 L17.4202541,7.8353476 C19.2013094,9.6571392 20.3037514,12.173272 20.3037514,14.95588 L20.3037514,14.95588 C20.3037514,17.739068 19.2013094,20.254876 17.4202541,22.077004 L17.4202541,22.077004 C15.6383867,23.898436 13.1823149,25.022592 10.4671425,25.022824 L10.4671425,25.022824 C7.75203978,25.022592 5.29614199,23.898436 3.51411215,22.077004 L3.51411215,22.077004 Z M3.06325028,7.3946404 C1.17028011,9.3302048 0,12.005188 0,14.95588 L0,14.95588 C0,17.907036 1.17028011,20.581764 3.06325028,22.517456 L3.06325028,22.517456 C4.95577956,24.453496 7.57552376,25.653516 10.4671425,25.653168 L10.4671425,25.653168 C13.3587845,25.653516 15.9787956,24.453496 17.871,22.517456 L17.871,22.517456 C19.7641326,20.581764 20.9345635,17.906804 20.9343315,14.95588 L20.9343315,14.95588 C20.9345635,12.005188 19.7641326,9.3302048 17.871,7.3946404 L17.871,7.3946404 C15.9787956,5.4587048 13.3587845,4.2588356 10.4671425,4.2588356 L10.4671425,4.2588356 C7.57552376,4.2588356 4.95577956,5.4587048 3.06325028,7.3946404 L3.06325028,7.3946404 L3.06325028,7.3946404 Z" id="path26" fill="#231F20" fill-rule="nonzero"></path>
                    <polyline id="path28" fill="#F0D6B7" points="14.7407238 14.937088 13.1936851 14.705088 11.1052641 14.473088 9.75161105 14.43446 8.4367558 14.473088 7.43116906 14.78246 6.54165083 15.749088 5.84551823 17.721088 5.69083757 18.14646 4.76266077 18.455716 4.22120884 19.345088 3.83448398 20.621088 4.25996022 21.74246 5.26540773 22.09046 6.07756243 21.703716 6.46438011 20.853088 6.92846851 20.93046 7.08310276 21.123716 6.92846851 22.013088 6.88971713 23.13446 7.12176133 24.681088 7.1127 25.564544 7.81789392 26.691716 9.05547845 27.581088 11.2212862 28.509088 13.6190221 28.161088 15.7074199 26.653088 16.6743481 25.10646 17.2930939 23.985088 17.4477514 21.201088 16.983663 18.803716 16.1328729 16.677088 15.3207182 15.555716"></polyline>
                    <polyline id="path30" fill="#335061" points="13.4257293 8.247832 7.89525746 8.015832 7.89525746 7.087832 8.35934586 3.839832 8.12730166 3.569088 4.25996022 4.883832 3.98916464 5.347832 3.60243978 9.717088 2.71306077 12.34646 2.51962873 12.965088 5.61347403 15.091716 6.58040221 15.47846 7.43116906 14.43446 8.16596022 13.777088 9.0168663 13.50646 9.40354475 13.39046 9.86763315 11.379832 10.2156994 10.9544832 11.1052641 11.263832 10.4864022 10.065088 13.8510663 8.479832 13.4257293 8.247832"></polyline>
                    <polyline id="path32" fill="#6D6B6D" points="4.25996022 21.74246 5.26540773 22.09046 6.07756243 21.703716 6.46438011 20.853088 6.92846851 20.93046 7.04449061 21.39446 6.81244641 22.283716 7.04449061 24.41046 6.85105856 25.57046 7.54719116 26.38246 9.05547845 27.581088 8.63004862 28.161088 6.50299227 27.117088 5.61347403 26.421088 5.11072707 25.33846 4.33723094 24.29446 4.10518674 23.057088 4.25996022 21.74246"></polyline>
                    <path d="M5.84551823,25.377088 C5.84551823,25.377088 6.42562873,26.807716 8.74607072,27.503716 C11.0665127,28.199716 8.86209282,28.00646 8.86209282,28.00646 L6.34835801,27.039716 L5.38142983,26.073088 L4.95609282,25.299716 L5.84551823,25.377088" id="path34" fill="#DCD9D8"></path>
                    <path d="M4.68529724,22.013088 C4.68529724,22.013088 3.87314254,24.719832 6.96708066,25.10646 L6.85105856,25.57046 L4.72404862,25.067716 L4.10518674,23.057088 L4.25996022,21.74246 L4.68529724,22.013088" id="path36" fill="#DCD9D8"></path>
                    <path d="M5.92288177,18.417088 L6.42926022,18.907652 C6.42926022,18.907652 6.65781215,18.881088 6.69642431,18.61046 C6.73503646,18.339716 6.85105856,15.903716 8.51402652,14.588972 C8.66571381,14.469028 7.27653481,14.78246 7.27653481,14.78246 L6.03890387,16.715716" id="path38" fill="#F7E4CD"></path>
                    <path d="M13.0391436,19.151716 C13.0391436,19.151716 13.1292928,20.32378 13.444989,20.233648 C13.7606851,20.143516 13.7606851,19.82788 13.7606851,19.82788 C13.7606851,19.82788 12.994011,19.33198 13.0391436,19.151716" id="path40" fill="#F7E4CD"></path>
                    <path d="M16.248895,23.443716 C16.248895,23.443716 15.6114696,23.309156 15.5527624,22.747716 C15.4940552,22.18616 16.248895,22.631716 16.3649171,22.670344" id="path42" fill="#F7E4CD" fill-rule="nonzero"></path>
                    <path d="M11.5693525,23.404972 C11.5693525,23.404972 10.7184464,23.288972 10.7184464,22.747716 C10.7184464,22.206344 11.6853978,22.244972 11.9560773,22.476972" id="path44" fill="#F7E4CD" fill-rule="nonzero"></path>
                    <path d="M6.30960663,20.891716 C6.30960663,20.891716 4.83993149,21.781088 4.68529724,20.930344 C4.53061657,20.079716 4.18245746,19.460972 4.91734144,18.571716 L4.41459448,18.726344 L3.95050608,19.924972 L3.79587182,21.084972 L4.68529724,22.013088 L5.69083757,21.935716 L6.27094807,21.471716 L6.30960663,20.891716" id="path46" fill="#F7E4CD"></path>
                    <path d="M7.00573923,23.327716 C7.00573923,23.327716 7.66321326,26.730344 10.989242,27.387716 C13.7275028,27.928856 15.1659448,27.271716 15.7074199,26.653088 C15.7074199,26.653088 13.2709558,29.552972 10.9504906,28.663716 C8.63004862,27.774344 6.92846851,26.150344 6.96708066,25.10646 C7.03293481,23.328412 7.00573923,23.327716 7.00573923,23.327716" id="path48" fill="#F7E4CD"></path>
                    <path d="M15.9782155,26.26646 C15.9782155,26.26646 14.8567459,26.305088 14.8179945,25.299716 C14.8179945,25.299716 14.8178785,25.145088 14.8952652,24.99046 C14.8952652,24.99046 15.7849227,25.995832 16.3262818,25.45446" id="path50" fill="#F7E4CD"></path>
                    <path d="M11.0671972,24.885712 C11.0671972,24.885712 10.8741249,26.42886 9.55822541,25.531716 C8.70741215,24.951716 8.7848221,24.139716 8.93945635,23.985088 C9.09413702,23.830344 9.05207901,23.518884 9.16982983,23.732672 C9.28752265,23.94646 9.24877127,24.64246 9.67424751,24.835716 C10.0996773,25.029088 10.7970746,25.24508 11.0671972,24.885712" id="path52" fill="#F7E4CD"></path>
                    <path d="M7.43116906,14.43446 L3.79587182,12.81046 C3.79587182,12.81046 5.30415912,6.817088 4.53061657,4.961088 L3.98916464,5.154344 L3.95050608,7.4357392 L2.94510497,11.766344 L2.51962873,12.965088 L6.30960663,15.516972 L7.43116906,14.43446" id="path54" fill="#49728B"></path>
                    <path d="M7.80498066,11.1195048 L8.3207337,10.490344 L8.3207337,8.170344 L7.70187182,8.170344 C7.70187182,8.170344 7.6246011,9.794344 7.6246011,9.9877392 C7.6246011,10.181088 7.70187182,10.877088 7.70187182,10.877088" id="path56" fill="#49728B"></path>
                    <polyline id="path58" fill="#49728B" points="7.81789392 7.822344 6.07756243 7.745088 6.58040221 7.397088 7.81789392 7.2037392"></polyline>
                    <polyline id="path60" fill="#335061" points="13.7737956 8.209088 15.2046961 8.2477392 15.5527624 4.690344 14.0831105 4.497088 13.7737956 8.209088"></polyline>
                    <path d="M14.1604972,8.209088 L16.3262818,8.325088 C16.3262818,8.325088 17.2157072,10.5677392 17.2157072,10.6837392 C17.2157072,10.7997392 17.9892265,13.931716 17.9892265,13.931716 L16.248895,15.748972 L15.9008287,16.058344 L14.9726519,15.130344 L14.9726519,11.534344 L14.1604972,8.209088" id="path62" fill="#335061"></path>
                    <path d="M15.1273094,8.4797392 L13.7737956,8.209088 L13.9670884,7.126344 C14.4698122,6.894344 15.3207182,7.513088 15.3207182,7.513088" id="path64" fill="#49728B"></path>
                    <polyline id="path66" fill="#49728B" points="15.1660608 15.246344 17.8732044 13.235716 17.9505912 14.163716 15.9008287 16.058344 15.1660608 15.246344"></polyline>
                    <polyline id="path68" fill="#FFFFFF" points="9.16003757 0.5913738 8.35934586 3.839832 7.9611116 6.2367168 7.89525746 8.015832 11.5191845 8.2087168 13.7737956 8.209088 13.5687845 4.1487168 13.9168508 1.01672144 13.8782155 0.43672144 10.939074 0.20472144 9.16003757 0.5913738"></polyline>
                    <path d="M13.2709558,8.2477392 C13.2709558,8.2477392 13.077663,4.226344 13.6577735,1.365088 C13.6577735,1.365088 12.4975525,0.63034168 10.7958099,0.43708452 L14.0444751,0.55308452 L14.4311768,0.78508452 L13.9670884,7.126344 L13.8510663,8.479832" id="path70" fill="#DCD9D8"></path>
                    <polyline id="path72" fill="#FFFFFF" points="15.618663 4.999368 17.1269503 5.4247168 19.9887514 5.579368 20.4142044 6.8939844 19.6406851 9.175368 18.7512597 9.291368 17.5136519 8.9047168 16.3262818 8.325088 15.6959337 8.4407168 15.2046961 8.2477392"></polyline>
                    <path d="M15.5913978,5.773088 C15.5913978,5.773088 16.5968453,6.2369952 16.7516188,6.198344 L16.3262818,8.325088 L16.8290055,8.518344 C16.8290055,8.518344 17.1770718,6.5077392 17.1770718,6.2757392 C17.1770718,6.2757392 19.3427403,6.1597392 19.5361492,6.1597392 C19.5361492,6.1597392 20.0002376,7.049088 19.8842155,7.977088 L20.3096685,6.7397392 L20.3483039,6.0437392 L19.729558,5.1157392 L19.0334254,4.961088 L17.8732044,4.9997392 L17.4865028,5.502344 L16.1328729,5.309088 L15.7074199,5.154344" id="path74" fill="#DCD9D8"></path>
                    <path d="M14.0716243,8.5179844 L13.2208343,10.683368 L12.3312928,11.959368 C12.3312928,11.959368 12.5245856,12.50074 12.7953812,12.50074 C13.0661768,12.50074 13.6849227,12.50074 13.6849227,12.50074 L14.5357127,12.191368 L14.458442,10.7607168 L14.0716243,8.5179844" id="path76" fill="#FFFFFF" fill-rule="nonzero"></path>
                    <path d="M14.237884,9.253088 C14.237884,9.253088 13.1549337,11.3409952 13.1549337,11.650344 C13.1549337,11.650344 13.3482265,12.114344 13.6190221,11.998344 C13.8898177,11.882344 14.4699282,11.573088 14.4699282,11.573088 L14.4699282,12.307716 L13.1549337,12.57846 L12.2655083,12.46246 L13.7737956,8.905088 L14.0831105,8.866344" id="path78" fill="#DCD9D8"></path>
                    <polyline id="path80" fill="#FFFFFF" fill-rule="nonzero" points="9.50815028 14.356624 8.4367558 14.473088 7.43116906 14.78246 7.43116906 14.43446 7.92249945 13.89274 9.4694453 13.19674"></polyline>
                    <path d="M7.77937459,14.24074 C7.77937459,14.24074 8.97834696,13.737996 9.36507182,13.853996 L9.40354475,13.39046 L8.32087293,13.621996 L7.66335249,14.085996 L7.77937459,14.24074" id="path82" fill="#DCD9D8"></path>
                    <path d="M15.6144862,12.36908 C14.9582652,12.388336 14.3653923,12.466288 13.8463094,12.61268 C13.8815801,12.825424 13.8155635,13.034224 13.8685856,13.18746 C14.0132652,13.291628 14.2557514,13.290004 14.474453,13.31448 C14.285337,13.407396 14.0196464,13.444168 13.8014088,13.39046 C13.7963039,13.538128 13.7300552,13.629652 13.6899116,13.745188 C14.0588619,13.876848 14.9298398,14.740004 15.4198011,14.45418 C15.6532376,14.318228 15.7524365,13.541724 15.7705359,13.164144 C15.7856188,12.850944 15.7421105,12.53496 15.6144862,12.36908" id="path84" fill="#D33833"></path>
                    <path d="M15.6144862,12.36908 C14.9582652,12.388336 14.3653923,12.466288 13.8463094,12.61268 C13.8815801,12.825424 13.8155635,13.034224 13.8685856,13.18746 C14.0132652,13.291628 14.2557514,13.290004 14.474453,13.31448 C14.285337,13.407396 14.0196464,13.444168 13.8014088,13.39046 C13.7963039,13.538128 13.7300552,13.629652 13.6899116,13.745188 C14.0588619,13.876848 14.9298398,14.740004 15.4198011,14.45418 C15.6532376,14.318228 15.7524365,13.541724 15.7705359,13.164144 C15.7856188,12.850944 15.7421105,12.53496 15.6144862,12.36908 Z" id="path86" stroke="#D33833" stroke-width="2.5"></path>
                    <path d="M12.4764365,13.441616 C12.4746961,13.391968 12.4726077,13.341972 12.4706354,13.29186 C12.2657403,13.1573 11.9349613,13.158924 11.7101105,13.045824 C12.0415856,13.031324 12.3025193,12.951516 12.5282983,12.838996 C12.5233094,12.713948 12.5185525,12.589016 12.5136796,12.463968 C12.138116,12.206912 11.7950387,11.824112 11.3528552,11.5830524 C11.1437834,11.4690476 10.4100365,11.1756952 10.1875989,11.2275356 C10.0617497,11.256756 10.0504144,11.4129036 10.0001072,11.5600844 C9.89292597,11.875268 9.64614696,12.376968 9.62462486,12.851408 C9.59720884,13.450664 9.53670331,14.454992 10.1826215,14.331568 C10.7037232,14.232156 11.3097994,13.992152 11.7132431,13.771752 C11.9597901,13.63696 12.1023812,13.470384 12.4764365,13.441616" id="path88" fill="#D33833"></path>
                    <path d="M12.4764365,13.441616 C12.4746961,13.391968 12.4726077,13.341972 12.4706354,13.29186 C12.2657403,13.1573 11.9349613,13.158924 11.7101105,13.045824 C12.0415856,13.031324 12.3025193,12.951516 12.5282983,12.838996 C12.5233094,12.713948 12.5185525,12.589016 12.5136796,12.463968 C12.138116,12.206912 11.7950387,11.824112 11.3528552,11.5830524 C11.1437834,11.4690476 10.4100365,11.1756952 10.1875989,11.2275356 C10.0617497,11.256756 10.0504144,11.4129036 10.0001072,11.5600844 C9.89292597,11.875268 9.64614696,12.376968 9.62462486,12.851408 C9.59720884,13.450664 9.53670331,14.454992 10.1826215,14.331568 C10.7037232,14.232156 11.3097994,13.992152 11.7132431,13.771752 C11.9597901,13.63696 12.1023812,13.470384 12.4764365,13.441616 L12.4764365,13.441616 Z" id="path90" stroke="#D33833" stroke-width="2.5"></path>
                    <path d="M12.8494475,12.726592 C12.7921326,13.053016 12.725884,13.146164 12.7515249,13.430944 C13.6222707,14.011408 13.7857459,12.433924 12.8494475,12.726592" id="path92" fill="#D33833"></path>
                    <path d="M12.8494475,12.726592 C12.7921326,13.053016 12.725884,13.146164 12.7515249,13.430944 C13.6222707,14.011408 13.7857459,12.433924 12.8494475,12.726592 Z" id="path94" stroke="#D33833" stroke-width="2.5"></path>
                    <path d="M14.1102597,12.461996 C14.1102597,12.461996 13.8394641,12.84874 14.0328729,12.96474 C14.2262818,13.08074 14.4196906,12.964624 14.5357127,13.157996 C14.6517348,13.351368 14.5357127,13.467368 14.5743481,13.699368 C14.6129834,13.931368 14.8065083,13.970112 14.9998011,14.00874 C15.1930939,14.047368 15.7346851,14.12474 15.8119558,13.931368 L15.5799116,14.627368 L15.1158232,14.781996 L13.6461713,13.931368 L13.5687845,13.505996 L13.5687845,12.655368" id="path96" fill="#EF3D3A"></path>
                    <path d="M10.0495094,11.1859844 C10.0030541,11.789428 9.95388398,12.392048 9.89917956,12.9949 C9.81732597,13.89506 10.1154448,13.737996 10.895879,13.737996 C11.0150801,13.737996 11.6298232,13.595896 11.6737956,13.505996 C11.8847238,13.075288 11.3210884,13.170988 11.9167459,12.846188 C12.4195856,12.57208 13.3078508,13.012648 13.1046961,13.621996 C12.9909945,13.757484 12.5122873,13.66422 12.3406906,13.753192 C12.0385691,13.909792 11.7364475,14.066392 11.4342912,14.222992 C11.0498867,14.422396 10.1614475,14.713092 9.75161105,14.43446 C8.71316685,13.728368 9.81715193,11.964124 10.1875989,11.2275356" id="path98" fill="#EF3D3A"></path>
                    <path d="M11.0671972,24.885712 C10.0131133,25.131168 9.48934309,24.44468 9.16982983,23.732672 C8.88453149,23.801808 8.99805912,24.189712 9.07012044,24.387376 C9.25879558,24.906128 10.0191464,25.596676 10.6404099,25.503064 C10.9077597,25.462812 11.2695514,25.2184 11.0671972,24.885712" id="path100" fill="#231F20"></path>
                    <path d="M16.2030663,23.685576 C16.2196575,23.68488 16.2364807,23.6843 16.2530718,23.683604 C16.4912652,23.188864 16.6974365,22.664776 16.9979337,22.228036 C16.7966354,21.75928 15.4736354,21.344464 15.4940552,22.18616 C15.7801657,22.311208 16.2740718,22.21168 16.5276961,22.371412 C16.3810442,22.773816 16.1694199,23.116364 16.2030663,23.685576" id="path102" fill="#231F20"></path>
                    <path d="M11.6068508,23.6727 C11.8328619,23.258464 11.9064199,22.823232 12.2276851,22.510148 C12.3723646,22.369208 12.6537182,22.197412 12.5142597,21.805448 C12.4816575,21.712996 12.2434641,21.506864 12.1059779,21.46638 C11.6037182,21.318132 10.4333801,21.435756 10.8297116,22.061808 C11.2450823,22.042436 11.8033923,21.792108 12.1138674,22.093592 C11.875442,22.474652 11.4503834,23.228536 11.6068508,23.6727" id="path104" fill="#231F20"></path>
                    <path d="M16.0145304,19.462596 C15.2582983,18.976904 14.4150497,18.448756 13.1759337,18.571252 C12.9111713,18.801396 12.810232,19.313536 13.067453,19.651792 C13.2013425,19.421648 13.1172265,18.998364 13.4903536,18.93468 C14.1934475,18.814388 15.0117514,19.364692 15.5174917,19.55702 C15.8310994,20.085632 15.4904586,20.280048 15.2079448,20.620276 C14.6295746,21.31732 13.8537348,22.181288 13.8819282,23.224824 C14.1157127,23.3943 14.1359006,22.966144 14.1694309,22.888192 C14.4714365,22.18152 15.2314972,21.277764 15.7861989,20.67294 C15.9224088,20.523996 16.1466796,20.381084 16.1716243,20.2826 C16.243558,19.996196 15.9844807,19.653068 16.0145304,19.462596" id="path106" fill="#231F20"></path>
                    <path d="M6.04493702,19.973924 C5.80790387,20.10918 5.75148232,20.704956 5.47320331,20.721892 C5.07551436,20.74602 5.14802818,19.948984 5.14961768,19.482896 C4.87587514,19.731368 4.82773757,20.496388 5.02883867,20.88928 C4.79964862,21.0018 4.69730552,20.76516 4.57018011,20.681756 C4.73356243,21.868436 6.30643923,21.232176 6.04493702,19.973924" id="path108" fill="#231F20"></path>
                    <path d="M16.4960221,18.968436 C16.144011,18.298536 15.6460442,17.560776 14.6130994,17.539316 C14.5920994,17.755656 14.5759724,18.084864 14.6142597,18.215132 C15.4039061,18.290996 15.8914309,18.69282 16.4960221,18.968436" id="path110" fill="#231F20"></path>
                    <path d="M11.5472851,18.534132 C12.206105,18.187756 13.4169116,18.15052 14.3123702,18.176736 C14.3604033,17.98058 14.3592431,17.738256 14.3610994,17.499064 C13.2100442,17.441644 11.849105,17.726424 11.5472851,18.534132" id="path112" fill="#231F20"></path>
                    <path d="M11.4220624,17.888244 C11.8776464,16.7446 13.4434807,16.87626 14.7639282,16.907812 C14.7058011,16.759332 14.5798011,16.58394 14.4231713,16.520488 C14.0000387,16.348344 12.8329724,16.217728 12.2455525,16.529652 C11.8730055,16.727664 11.6336519,17.175076 11.4295343,17.437352 C11.3309619,17.564024 10.8401304,17.887548 11.4220624,17.888244" id="path114" fill="#231F20"></path>
                    <path d="M15.9595359,11.5798392 C15.4249061,10.664344 14.9133646,9.7240596 14.2790718,8.9165488 C14.5449945,9.6982844 14.6588122,11.0066832 14.6989558,12.004144 C15.2552818,12.264448 15.7316685,11.945564 15.9595359,11.5798392" id="path116" fill="#81B0C4"></path>
                    <path d="M18.8364199,8.2894644 C18.2378619,8.1696596 17.8172818,7.5880356 17.2333425,7.6253644 C17.5542597,8.0776832 18.1166188,8.2683524 18.8364199,8.2894644" id="path118" fill="#231F20"></path>
                    <path d="M19.1004862,7.3529036 C18.6126133,7.301388 18.0395801,7.2224036 17.5447459,7.2630964 C17.7789945,7.6208404 18.6815304,7.4974048 19.1004862,7.3529036" id="path120" fill="#231F20"></path>
                    <path d="M19.2695304,6.5454392 C18.7212099,6.5335608 18.0396961,6.544488 17.5185249,6.5882084 C17.8267956,6.9192608 18.9139227,6.7110524 19.2695304,6.5454392" id="path122" fill="#231F20"></path>
                    <path d="M14.9278674,4.335732 C15.0065304,3.6472488 15.2795304,2.9496596 15.2453039,2.1956596 C14.9421381,2.0934404 14.767989,2.0040392 14.3617956,2.0045844 C14.3331381,2.6453916 14.2473978,3.625 14.2730387,4.235856 C14.4728287,4.222632 14.7674088,4.3785476 14.9278674,4.335732" id="path124" fill="#DCD9D8"></path>
                    <path d="M14.043895,14.482484 C13.7685746,14.3028 13.5340939,14.078456 13.2696796,13.886592 C12.6833039,13.857592 12.3633149,13.927192 11.9325249,14.263824 C11.9396022,14.290852 11.9828785,14.278788 11.9845028,14.311964 C12.6121823,14.032288 13.4100663,14.425876 14.043895,14.482484" id="path126" fill="#F0D6B7"></path>
                    <path d="M10.7488094,10.2046476 C10.9212646,10.9518036 11.5970006,11.338768 12.2106298,11.75022 C12.8439945,10.9465488 13.2291878,9.913012 13.6533646,8.915644 C12.6511657,9.2176964 11.6271547,9.7077964 10.7488094,10.2046476" id="path128" fill="#81B0C4"></path>
                    <path d="M14.2730387,4.235856 C14.2473978,3.625 14.3331381,2.6453916 14.3617956,2.0045844 C14.767989,2.0040392 14.9421381,2.0934404 15.2453039,2.1956596 C15.2795304,2.9496596 15.0065304,3.6472488 14.9278674,4.335732 C14.7674088,4.3785476 14.4728287,4.222632 14.2730387,4.235856 L14.2730387,4.235856 Z M7.94819834,7.7099168 C8.21604696,5.2480488 8.60399006,3.1785392 9.31553039,0.99850596 C10.894742,0.5191 12.7985138,0.47732144 14.1943757,0.90992024 C13.9380829,2.1403392 14.0500442,3.6383168 13.9002597,4.951344 C13.7873702,5.9382488 13.8449171,6.931232 13.6901436,7.938112 C11.9987735,8.2899168 9.60808011,8.020356 7.94819834,7.7099168 L7.94819834,7.7099168 Z M14.0900718,7.9226608 C14.0758011,6.865344 14.1374088,5.822388 14.2181602,4.7637488 C14.6242376,4.8246952 14.8997901,4.865388 15.2770939,4.9480844 C15.1545746,5.9672488 15.1696575,7.1140596 14.9200939,8.0156 C14.631663,8.0128392 14.3776906,8.0189524 14.0900718,7.9226608 L14.0900718,7.9226608 Z M16.1500442,8.093088 C15.9573315,8.1372608 15.7329448,8.0948048 15.5488177,8.091232 C15.6353702,7.2293404 15.8453702,6.278268 15.9192762,5.3735608 C16.2089834,5.3645476 16.3637569,5.5011608 16.6020663,5.5471084 C16.6148287,6.341256 16.5326851,7.435368 16.1500442,8.093088 L16.1500442,8.093088 Z M19.2691823,5.2437916 C19.8730773,5.3904156 20.2528177,6.1299156 20.0838895,6.889356 C19.9705359,7.399756 19.7686575,8.3608392 19.5526243,8.687356 C19.3929779,8.928868 18.9600994,9.2450608 18.6144696,9.023756 C18.0522265,8.6637964 17.0617459,8.5593036 16.6517238,8.1235844 C16.8573149,7.4391844 16.9211271,6.499132 17.0059392,5.6319392 C17.708337,5.5881608 18.5725856,5.8251952 19.1567569,5.5736608 C18.7489392,5.4415832 18.2197624,5.4405392 17.8674033,5.2480488 C18.1553702,5.108988 18.8295746,5.1370832 19.2691823,5.2437916 L19.2691823,5.2437916 Z M13.6533646,8.915644 C13.2291878,9.913012 12.8439945,10.9465488 12.2106298,11.75022 C11.5970006,11.338768 10.9212646,10.9518036 10.7488094,10.2046476 C11.6271547,9.7077964 12.6511657,9.2176964 13.6533646,8.915644 Z M14.6989558,12.004144 C14.6588122,11.0066832 14.5449945,9.6982844 14.2790718,8.9165488 C14.9133646,9.7240596 15.4249061,10.664344 15.9595359,11.5798392 C15.7316685,11.945564 15.2552818,12.264448 14.6989558,12.004144 L14.6989558,12.004144 Z M13.513674,12.425224 C13.2733923,12.451092 13.0694254,12.149028 12.7569779,12.279644 C12.6853923,12.200532 12.6203039,12.114808 12.547326,12.037552 C13.2374254,11.2060524 13.5510331,10.026344 14.0840387,9.0491832 C14.3700331,9.987832 14.3370829,11.0161952 14.4000829,12.040684 C14.007116,12.015744 13.7891105,12.395992 13.513674,12.425224 Z M12.7515249,13.430944 C12.725884,13.146164 12.7921326,13.053016 12.8494475,12.726592 C13.7857459,12.433924 13.6222707,14.011408 12.7515249,13.430944 Z M11.7132431,13.771752 C11.3097994,13.992152 10.7037232,14.232156 10.1826215,14.331568 C9.53670331,14.455108 9.59720884,13.450664 9.62462486,12.851408 C9.64614696,12.376968 9.89292597,11.875268 10.0001072,11.5600844 C10.0504144,11.4129036 10.0617497,11.256756 10.1875989,11.2275356 C10.4100365,11.1756952 11.1437834,11.4690476 11.3528552,11.5830524 C11.7950387,11.824112 12.138116,12.206912 12.5136796,12.463968 C12.5185525,12.589016 12.5233094,12.713948 12.5282983,12.838996 C12.3025193,12.951516 12.0415856,13.031324 11.7101105,13.045824 C11.9349613,13.158924 12.2657403,13.1573 12.4706354,13.29186 C12.4726077,13.341972 12.4746961,13.391968 12.4764365,13.441616 C12.1023812,13.470384 11.9597901,13.63696 11.7132431,13.771752 L11.7132431,13.771752 Z M7.85973149,14.47158 C7.52489171,14.1317 8.79887238,13.668396 9.20449724,13.643456 C9.20223481,13.85852 9.32708619,14.061288 9.3019326,14.215568 C8.82017403,14.300132 8.18704144,14.244336 7.85973149,14.47158 L7.85973149,14.47158 Z M11.9845028,14.311964 C11.9828785,14.278788 11.9396022,14.290852 11.9325249,14.263824 C12.3633149,13.927192 12.6833039,13.857592 13.2696796,13.886592 C13.5340939,14.078456 13.7685746,14.3028 14.043895,14.482484 C13.4100663,14.425876 12.6121823,14.032288 11.9845028,14.311964 L11.9845028,14.311964 Z M15.7705359,13.164144 C15.7524365,13.541724 15.6532376,14.318228 15.4198011,14.45418 C14.9298398,14.74012 14.0588619,13.876848 13.6899116,13.745188 C13.7300552,13.629652 13.7963039,13.538128 13.8014088,13.39046 C14.0196464,13.444168 14.285337,13.407396 14.474453,13.31448 C14.2557514,13.290004 14.0132652,13.291628 13.8685856,13.18746 C13.8155635,13.034224 13.8815801,12.825424 13.8463094,12.61268 C14.3653923,12.466288 14.9582652,12.388336 15.6144862,12.36908 C15.7421105,12.53496 15.7856188,12.850944 15.7705359,13.164144 L15.7705359,13.164144 Z M7.29602652,14.142836 C7.19087569,14.217772 6.4795674,15.143104 6.38212044,15.104708 C5.09500608,14.597208 3.89149724,13.719668 2.81603039,12.889688 C3.8414221,10.6898524 4.25534254,7.9947084 4.32848287,5.3970392 C5.50311381,4.847756 6.53485193,4.0559168 8.12879834,3.973232 C7.94434641,5.278 7.77597514,6.4420832 7.6712768,7.6705 C7.27078011,7.8392916 6.69619227,7.662844 6.32139448,7.7228392 C6.31821547,8.1744156 6.8938011,7.9205844 6.94174144,8.2242608 C6.97787072,8.4539524 6.62504751,8.4713524 6.7399326,8.8330404 C7.03293481,8.7265524 7.18680331,8.4913392 7.49928564,8.4030168 C7.78481602,9.0275608 7.49529448,10.1326 7.53644751,10.6546 C7.5442442,10.7526084 7.58539724,11.1975844 7.80498066,11.1195048 C7.99931768,11.0504036 7.79387735,9.9360844 7.81517901,9.4420404 C7.8345779,8.986868 7.76019613,8.5464392 7.94456685,8.2606964 C9.48480663,8.4703084 11.049968,8.6057964 12.7164862,8.651512 C12.3498564,8.8087964 11.9143094,8.9576476 11.4367856,9.226756 C11.1779171,9.3726608 10.3619105,9.676256 10.2872155,9.9220832 C10.168026,10.3138036 10.5999298,10.5224644 10.6738011,10.8582844 C9.89632541,10.4343392 9.74463812,11.264644 9.56071989,11.85288 C9.39407735,12.385668 9.29921768,12.783664 9.25833149,13.090948 C8.58858232,13.41018 7.87250552,13.733472 7.29602652,14.142836 L7.29602652,14.142836 Z M15.0902983,14.992768 C16.1626906,15.51268 16.3559834,13.049652 15.9356354,12.256212 C16.0006077,12.019572 16.2240663,11.928976 16.3152597,11.716232 C15.7168177,10.6444036 15.0521271,9.6439036 14.4415028,8.5846844 C14.8957293,8.867388 15.5445249,8.6352488 16.0790387,8.846856 C16.2744199,8.924112 16.4158508,9.3713036 16.563779,9.7290476 C16.9706685,10.7132844 17.3978619,11.954148 17.5879061,12.8934 C17.6308343,13.10742 17.7477845,13.57374 17.7215635,13.764212 C17.6748066,14.105252 17.2119945,14.358132 16.9765856,14.56902 C16.542895,14.958548 16.269779,15.301328 15.8174088,15.665568 C15.6339779,15.394824 15.2403149,15.212936 15.0902983,14.992768 L15.0902983,14.992768 Z M4.84347017,24.501056 C4.33247403,23.93892 4.43943481,22.88564 4.50129779,22.13628 C5.42493812,22.717208 6.65087403,22.090344 6.63931823,21.102256 C7.08029503,21.113972 6.80405801,21.652908 6.72429282,22.000096 C6.46361436,23.134112 7.16345967,24.366148 6.75602486,25.403188 C5.96493978,25.343216 5.31503039,25.020156 4.84347017,24.501056 L4.84347017,24.501056 Z M8.4997558,27.763672 C7.34293425,27.435856 5.86033425,26.595436 5.38496851,25.556424 C5.75306022,25.6099 6.00858729,25.7955 6.37170166,25.818468 C6.5089326,25.8274 6.68872044,25.760932 6.84644088,25.80014 C7.16074475,25.878092 7.42600608,26.582676 7.66312044,26.844836 C7.89425967,27.100848 8.17207459,27.210236 8.3622,27.443628 C8.48434807,27.502556 8.66494807,27.498496 8.67188619,27.681892 C8.6189453,27.7385 8.56319669,27.781652 8.4997558,27.763672 L8.4997558,27.763672 Z M14.521674,27.455344 C13.3209613,28.132668 11.2885906,28.64214 10.0113497,28.005532 C8.98074862,27.491768 7.58765967,26.64172 7.1127,25.564544 C7.55639171,24.525068 6.98127017,23.572592 6.94456077,22.517224 C6.92506906,21.955668 7.20900994,21.465452 7.23076409,20.854132 C7.07893757,20.603688 6.61506961,20.572832 6.29396685,20.59 C6.18588066,21.130792 5.99666022,21.738632 5.43967293,21.799648 C4.65153481,21.885836 4.07527624,21.233684 4.03947182,20.552184 C3.99710055,19.75074 4.6551547,18.422424 5.58786796,18.514644 C5.94817459,18.550256 6.03668785,18.911364 6.42926022,18.907652 C6.64203315,18.483208 6.1010453,18.349924 6.0453895,18.046352 C6.03088674,17.967936 6.09025525,17.661464 6.12478343,17.51774 C6.2941989,16.817912 6.67186243,15.912184 7.04358564,15.379396 C7.5153779,14.70358 8.44229006,14.601732 9.4394884,14.535496 C9.61759392,14.919108 10.2737105,14.887556 10.7012287,14.787216 C10.1888751,14.9901 9.71254641,15.48194 9.31779282,15.917288 C8.86435525,16.416784 8.40503536,16.952588 8.38183094,17.605436 C9.23871215,16.4169 9.9466326,15.378932 11.5047746,14.85612 C12.683768,14.460792 14.0607182,15.037312 14.9666188,15.67334 C15.3425304,15.937704 15.5669171,16.35716 15.834116,16.74112 C16.8338785,18.17894 17.3004033,20.231212 17.1978398,22.22038 C17.1556077,23.040732 17.1574641,23.8583 16.8821436,24.410228 C16.5944088,24.987328 15.6212155,25.503644 15.051547,24.981644 C14.9459669,25.542852 15.5252652,25.889924 16.2057348,25.687968 C15.7205304,26.31402 15.2113094,27.06628 14.521674,27.455344 L14.521674,27.455344 Z M16.7586961,8.9455488 C17.6969669,9.4119036 19.4500608,10.2007964 20.0382928,8.943832 C20.2553702,8.4805048 20.5100387,7.6972844 20.6224641,7.2190048 C20.7812983,6.544256 20.4502873,5.1260168 19.7565912,4.8995964 C19.1438785,4.6996356 18.4289503,4.7118156 17.6909337,4.8600404 C17.6040331,4.9323084 17.5072707,5.0582844 17.4396298,5.1895964 C16.9126575,5.2100356 16.4192155,5.1613156 16.0029282,4.944732 C16.0423757,4.555088 15.7787735,4.4925524 15.5316464,4.4123036 C15.3484475,3.6860392 15.8981602,2.7376 15.7665912,2.075356 C15.6727293,1.6035608 15.0921547,1.5306084 14.6654254,1.442344 C14.6515028,1.1801608 14.684105,0.96130476 14.7132265,0.7395 C14.6156519,0.38003572 14.1780166,0.17540476 13.7633536,0.12528928 C12.3990497,-0.038742144 10.3275564,-0.112420356 9.0152768,0.3593738 C8.64908785,1.2574168 8.3606105,2.3496844 8.0556,3.3751476 C6.77573702,3.238488 5.74059945,3.9272844 4.76474917,4.3785476 C4.42688122,4.5351476 3.95948619,4.6214168 3.83326575,4.8903048 C3.71089724,5.150632 3.76097238,5.6495596 3.73060939,6.120856 C3.65333867,7.324588 3.58717127,8.485632 3.26923591,9.718132 C3.12648232,10.2712084 2.87766133,10.759232 2.70408066,11.2921476 C2.5436453,11.786064 2.26333591,12.396456 2.19023039,12.888992 C2.08183094,13.61898 2.76934309,13.65958 3.20896243,13.975912 C3.88855028,14.465084 4.42198508,14.735596 5.15799448,15.177092 C5.3759884,15.307824 6.03338122,15.638772 6.10815746,15.791196 C6.25680497,16.093376 5.85300166,16.519444 5.74504309,16.756316 C5.57427017,17.13088 5.4852116,17.449068 5.46074254,17.818644 C4.84333094,17.9162 4.37529779,18.283572 4.09258674,18.697808 C3.62492486,19.383368 3.30059669,20.651712 3.70522376,21.616484 C3.7369558,21.692464 3.89520994,21.841872 3.91855359,21.958568 C3.96460276,22.188364 3.83189669,22.493908 3.82364751,22.73832 C3.78113702,23.99228 4.03585193,25.072704 4.88017956,25.450864 C5.22294365,26.816068 6.44973812,27.269976 7.60556188,27.94846 C8.03761657,28.202036 8.51388729,28.364088 9.00576298,28.545048 C10.7702503,29.1943 13.4774751,29.072036 14.9419061,27.9647 C15.5628564,27.495132 16.5554254,26.50368 16.910453,25.785872 C17.8481436,23.89078 17.781547,20.723632 17.125674,18.418364 C17.0374972,18.108876 16.9096409,17.653924 16.7310829,17.282144 C16.6065912,17.022536 16.2196575,16.503088 16.2666464,16.273872 C16.3150276,16.036884 17.1488785,15.403872 17.3276685,15.231496 C17.6496298,14.920964 18.2612983,14.508816 18.3108398,14.116968 C18.3640939,13.699948 18.1270608,13.12946 18.0069779,12.727056 C17.6055414,11.3841356 17.2138508,10.1427964 16.7586961,8.9455488 L16.7586961,8.9455488 Z" id="path130" fill="#231F20"></path>
                    <path d="M10.4989558,18.24158 C10.5498547,18.309324 10.8297116,18.412216 11.2212862,18.223716 C11.2212862,18.223716 10.7571978,18.146344 10.7958099,17.37274 L10.6024243,17.411484 C10.6024243,17.411484 10.4025646,18.112936 10.4989558,18.24158" id="path132" fill="#F7E4CD"></path>
                    <path d="M13.8898177,11.592344 C13.8898177,11.4749404 13.7945635,11.3797392 13.6770331,11.3797392 C13.5596188,11.3797392 13.4643646,11.4749404 13.4643646,11.592344 C13.4643646,11.709736 13.5596188,11.805088 13.6770331,11.805088 C13.7945635,11.805088 13.8898177,11.709736 13.8898177,11.592344" id="path134" fill="#1D1919"></path>
                    <path d="M14.1024862,10.606344 C14.1024862,10.4889404 14.007232,10.3937392 13.8897017,10.3937392 C13.7722873,10.3937392 13.6770331,10.4889404 13.6770331,10.606344 C13.6770331,10.7237476 13.7722873,10.819088 13.8897017,10.819088 C14.007232,10.819088 14.1024862,10.7237476 14.1024862,10.606344" id="path136" fill="#1D1919"></path>
                </g>
            </g>
        </g>
    </g>
</svg>